<svg width="96" height="84" viewBox="0 0 96 84" fill="none" xmlns="http://www.w3.org/2000/svg">
<circle cx="56" cy="40" r="40" fill="#C8CCDF" fill-opacity="0.16"/>
<path d="M54.74 63.74L69.74 48.74" stroke="#10B382" stroke-width="4" stroke-linecap="round" stroke-linejoin="round"/>
<path d="M46.74 58.74L66.74 38.74" stroke="#10B382" stroke-width="4" stroke-linecap="round" stroke-linejoin="round"/>
<path d="M40 52L60.74 31.74" stroke="#10B382" stroke-width="4" stroke-linecap="round" stroke-linejoin="round"/>
<path d="M39 40L54.74 24.74" stroke="#10B382" stroke-width="4" stroke-linecap="round" stroke-linejoin="round"/>
<path d="M43 14H33" stroke="#FF9E2C" stroke-width="4" stroke-linecap="round" stroke-linejoin="round"/>
<path d="M2.83002 45.69L9.31002 41" stroke="#FF9E2C" stroke-width="4" stroke-linecap="round" stroke-linejoin="round"/>
<path d="M14 47.48L9.31 41" stroke="#FF9E2C" stroke-width="4" stroke-linecap="round" stroke-linejoin="round"/>
<path d="M39 20C56.1208 20 70 33.8792 70 51" stroke="#FF9E2C" stroke-width="4" stroke-linecap="round" stroke-linejoin="round"/>
<path d="M18 28.2C23.717 22.9187 31.2169 19.9902 39 20" stroke="#FF9E2C" stroke-width="4" stroke-linecap="round" stroke-linejoin="round"/>
<path d="M8.00001 50.9999C7.99802 48.3547 8.33408 45.72 9.00001 43.1599" stroke="#FF9E2C" stroke-width="4" stroke-linecap="round" stroke-linejoin="round"/>
<path d="M39 82C21.8792 82 8 68.1208 8 51" stroke="#FF9E2C" stroke-width="4" stroke-linecap="round" stroke-linejoin="round"/>
<path d="M70 51C70 59.2217 66.7339 67.1067 60.9203 72.9203C55.1067 78.7339 47.2217 82 39 82" stroke="#FF9E2C" stroke-width="4" stroke-linecap="round" stroke-linejoin="round"/>
<path d="M38 20V51L59.74 72.74" stroke="#FF9E2C" stroke-width="4" stroke-linecap="round" stroke-linejoin="round"/>
</svg>
