<svg width="1440" height="796" viewBox="0 0 1440 796" fill="none" xmlns="http://www.w3.org/2000/svg">
<path d="M243 165C243 109.772 287.771 65 343 65H1437C1439.21 65 1441 66.7909 1441 69V658C1441 660.209 1439.21 662 1437 662H247C244.791 662 243 660.209 243 658V165Z" fill="#C8CCDF" fill-opacity="0.1"/>
<g opacity="0.6">
<ellipse cx="1307.98" cy="563.117" rx="3.11681" ry="3.02292" transform="rotate(90 1307.98 563.117)" fill="#C8CCDF"/>
<ellipse cx="1307.98" cy="584.537" rx="3.11681" ry="3.02292" transform="rotate(90 1307.98 584.537)" fill="#C8CCDF"/>
<ellipse cx="1307.98" cy="607.029" rx="3.11681" ry="3.02292" transform="rotate(90 1307.98 607.029)" fill="#C8CCDF"/>
<ellipse cx="1307.98" cy="628.449" rx="3.11681" ry="3.02292" transform="rotate(90 1307.98 628.449)" fill="#C8CCDF"/>
<ellipse cx="1307.98" cy="649.87" rx="3.11681" ry="3.02292" transform="rotate(90 1307.98 649.87)" fill="#C8CCDF"/>
<ellipse cx="1307.98" cy="672.361" rx="3.11681" ry="3.02292" transform="rotate(90 1307.98 672.361)" fill="#C8CCDF"/>
<ellipse cx="1307.98" cy="693.782" rx="3.11681" ry="3.02292" transform="rotate(90 1307.98 693.782)" fill="#C8CCDF"/>
<ellipse cx="1325.98" cy="563.117" rx="3.11681" ry="3.02292" transform="rotate(90 1325.98 563.117)" fill="#C8CCDF"/>
<ellipse cx="1325.98" cy="584.537" rx="3.11681" ry="3.02292" transform="rotate(90 1325.98 584.537)" fill="#C8CCDF"/>
<ellipse cx="1325.98" cy="607.029" rx="3.11681" ry="3.02292" transform="rotate(90 1325.98 607.029)" fill="#C8CCDF"/>
<ellipse cx="1325.98" cy="628.449" rx="3.11681" ry="3.02292" transform="rotate(90 1325.98 628.449)" fill="#C8CCDF"/>
<ellipse cx="1325.98" cy="649.87" rx="3.11681" ry="3.02292" transform="rotate(90 1325.98 649.87)" fill="#C8CCDF"/>
<ellipse cx="1325.98" cy="672.361" rx="3.11681" ry="3.02292" transform="rotate(90 1325.98 672.361)" fill="#C8CCDF"/>
<ellipse cx="1325.98" cy="693.782" rx="3.11681" ry="3.02292" transform="rotate(90 1325.98 693.782)" fill="#C8CCDF"/>
<ellipse cx="1343.98" cy="563.117" rx="3.11681" ry="3.02292" transform="rotate(90 1343.98 563.117)" fill="#C8CCDF"/>
<ellipse cx="1343.98" cy="584.537" rx="3.11681" ry="3.02292" transform="rotate(90 1343.98 584.537)" fill="#C8CCDF"/>
<ellipse cx="1343.98" cy="607.029" rx="3.11681" ry="3.02292" transform="rotate(90 1343.98 607.029)" fill="#C8CCDF"/>
<ellipse cx="1343.98" cy="628.449" rx="3.11681" ry="3.02292" transform="rotate(90 1343.98 628.449)" fill="#C8CCDF"/>
<ellipse cx="1343.98" cy="649.87" rx="3.11681" ry="3.02292" transform="rotate(90 1343.98 649.87)" fill="#C8CCDF"/>
<ellipse cx="1343.98" cy="672.361" rx="3.11681" ry="3.02292" transform="rotate(90 1343.98 672.361)" fill="#C8CCDF"/>
<ellipse cx="1343.98" cy="693.782" rx="3.11681" ry="3.02292" transform="rotate(90 1343.98 693.782)" fill="#C8CCDF"/>
<ellipse cx="1360.98" cy="563.117" rx="3.11681" ry="3.02292" transform="rotate(90 1360.98 563.117)" fill="#C8CCDF"/>
<ellipse cx="1360.98" cy="584.537" rx="3.11681" ry="3.02292" transform="rotate(90 1360.98 584.537)" fill="#C8CCDF"/>
<ellipse cx="1360.98" cy="607.029" rx="3.11681" ry="3.02292" transform="rotate(90 1360.98 607.029)" fill="#C8CCDF"/>
<ellipse cx="1360.98" cy="628.449" rx="3.11681" ry="3.02292" transform="rotate(90 1360.98 628.449)" fill="#C8CCDF"/>
<ellipse cx="1360.98" cy="649.87" rx="3.11681" ry="3.02292" transform="rotate(90 1360.98 649.87)" fill="#C8CCDF"/>
<ellipse cx="1360.98" cy="672.361" rx="3.11681" ry="3.02292" transform="rotate(90 1360.98 672.361)" fill="#C8CCDF"/>
<ellipse cx="1360.98" cy="693.782" rx="3.11681" ry="3.02292" transform="rotate(90 1360.98 693.782)" fill="#C8CCDF"/>
<ellipse cx="1378.98" cy="563.117" rx="3.11681" ry="3.02292" transform="rotate(90 1378.98 563.117)" fill="#C8CCDF"/>
<ellipse cx="1378.98" cy="584.537" rx="3.11681" ry="3.02292" transform="rotate(90 1378.98 584.537)" fill="#C8CCDF"/>
<ellipse cx="1378.98" cy="607.029" rx="3.11681" ry="3.02292" transform="rotate(90 1378.98 607.029)" fill="#C8CCDF"/>
<ellipse cx="1378.98" cy="628.449" rx="3.11681" ry="3.02292" transform="rotate(90 1378.98 628.449)" fill="#C8CCDF"/>
<ellipse cx="1378.98" cy="649.87" rx="3.11681" ry="3.02292" transform="rotate(90 1378.98 649.87)" fill="#C8CCDF"/>
<ellipse cx="1378.98" cy="672.361" rx="3.11681" ry="3.02292" transform="rotate(90 1378.98 672.361)" fill="#C8CCDF"/>
<ellipse cx="1378.98" cy="693.782" rx="3.11681" ry="3.02292" transform="rotate(90 1378.98 693.782)" fill="#C8CCDF"/>
<ellipse cx="1396.98" cy="563.117" rx="3.11681" ry="3.02292" transform="rotate(90 1396.98 563.117)" fill="#C8CCDF"/>
<ellipse cx="1396.98" cy="584.537" rx="3.11681" ry="3.02292" transform="rotate(90 1396.98 584.537)" fill="#C8CCDF"/>
<ellipse cx="1396.98" cy="607.029" rx="3.11681" ry="3.02292" transform="rotate(90 1396.98 607.029)" fill="#C8CCDF"/>
<ellipse cx="1396.98" cy="628.449" rx="3.11681" ry="3.02292" transform="rotate(90 1396.98 628.449)" fill="#C8CCDF"/>
<ellipse cx="1396.98" cy="649.87" rx="3.11681" ry="3.02292" transform="rotate(90 1396.98 649.87)" fill="#C8CCDF"/>
<ellipse cx="1396.98" cy="672.361" rx="3.11681" ry="3.02292" transform="rotate(90 1396.98 672.361)" fill="#C8CCDF"/>
<ellipse cx="1396.98" cy="693.782" rx="3.11681" ry="3.02292" transform="rotate(90 1396.98 693.782)" fill="#C8CCDF"/>
</g>
<circle cx="419" cy="45" r="3" transform="rotate(90 419 45)" fill="#C8CCDF"/>
<circle cx="419" cy="72" r="3" transform="rotate(90 419 72)" fill="#C8CCDF"/>
<circle cx="419" cy="98" r="3" transform="rotate(90 419 98)" fill="#C8CCDF"/>
<circle cx="419" cy="124" r="3" transform="rotate(90 419 124)" fill="#C8CCDF"/>
<circle cx="419" cy="152" r="3" transform="rotate(90 419 152)" fill="#C8CCDF"/>
<circle cx="419" cy="178" r="3" transform="rotate(90 419 178)" fill="#C8CCDF"/>
<circle cx="419" cy="204" r="3" transform="rotate(90 419 204)" fill="#C8CCDF"/>
<circle cx="419" cy="231" r="3" transform="rotate(90 419 231)" fill="#C8CCDF"/>
<circle cx="444" cy="45" r="3" transform="rotate(90 444 45)" fill="#C8CCDF"/>
<circle cx="444" cy="72" r="3" transform="rotate(90 444 72)" fill="#C8CCDF"/>
<circle cx="444" cy="98" r="3" transform="rotate(90 444 98)" fill="#C8CCDF"/>
<circle cx="444" cy="124" r="3" transform="rotate(90 444 124)" fill="#C8CCDF"/>
<circle cx="444" cy="152" r="3" transform="rotate(90 444 152)" fill="#C8CCDF"/>
<circle cx="444" cy="178" r="3" transform="rotate(90 444 178)" fill="#C8CCDF"/>
<circle cx="444" cy="204" r="3" transform="rotate(90 444 204)" fill="#C8CCDF"/>
<circle cx="444" cy="231" r="3" transform="rotate(90 444 231)" fill="#C8CCDF"/>
<circle cx="395" cy="45" r="3" transform="rotate(90 395 45)" fill="#C8CCDF"/>
<circle cx="395" cy="72" r="3" transform="rotate(90 395 72)" fill="#C8CCDF"/>
<circle cx="395" cy="98" r="3" transform="rotate(90 395 98)" fill="#C8CCDF"/>
<circle cx="395" cy="124" r="3" transform="rotate(90 395 124)" fill="#C8CCDF"/>
<circle cx="395" cy="152" r="3" transform="rotate(90 395 152)" fill="#C8CCDF"/>
<circle cx="395" cy="178" r="3" transform="rotate(90 395 178)" fill="#C8CCDF"/>
<circle cx="395" cy="204" r="3" transform="rotate(90 395 204)" fill="#C8CCDF"/>
<circle cx="395" cy="231" r="3" transform="rotate(90 395 231)" fill="#C8CCDF"/>
<circle cx="372" cy="45" r="3" transform="rotate(90 372 45)" fill="#C8CCDF"/>
<circle cx="372" cy="72" r="3" transform="rotate(90 372 72)" fill="#C8CCDF"/>
<circle cx="372" cy="98" r="3" transform="rotate(90 372 98)" fill="#C8CCDF"/>
<circle cx="372" cy="124" r="3" transform="rotate(90 372 124)" fill="#C8CCDF"/>
<circle cx="372" cy="152" r="3" transform="rotate(90 372 152)" fill="#C8CCDF"/>
<circle cx="372" cy="178" r="3" transform="rotate(90 372 178)" fill="#C8CCDF"/>
<circle cx="372" cy="204" r="3" transform="rotate(90 372 204)" fill="#C8CCDF"/>
<circle cx="372" cy="231" r="3" transform="rotate(90 372 231)" fill="#C8CCDF"/>
<circle cx="347" cy="45" r="3" transform="rotate(90 347 45)" fill="#C8CCDF"/>
<circle cx="347" cy="72" r="3" transform="rotate(90 347 72)" fill="#C8CCDF"/>
<circle cx="347" cy="98" r="3" transform="rotate(90 347 98)" fill="#C8CCDF"/>
<circle cx="347" cy="124" r="3" transform="rotate(90 347 124)" fill="#C8CCDF"/>
<circle cx="347" cy="152" r="3" transform="rotate(90 347 152)" fill="#C8CCDF"/>
<circle cx="347" cy="178" r="3" transform="rotate(90 347 178)" fill="#C8CCDF"/>
<circle cx="347" cy="204" r="3" transform="rotate(90 347 204)" fill="#C8CCDF"/>
<circle cx="347" cy="231" r="3" transform="rotate(90 347 231)" fill="#C8CCDF"/>
<circle cx="324" cy="45" r="3" transform="rotate(90 324 45)" fill="#C8CCDF"/>
<circle cx="324" cy="72" r="3" transform="rotate(90 324 72)" fill="#C8CCDF"/>
<circle cx="324" cy="98" r="3" transform="rotate(90 324 98)" fill="#C8CCDF"/>
<circle cx="324" cy="124" r="3" transform="rotate(90 324 124)" fill="#C8CCDF"/>
<circle cx="324" cy="152" r="3" transform="rotate(90 324 152)" fill="#C8CCDF"/>
<circle cx="324" cy="178" r="3" transform="rotate(90 324 178)" fill="#C8CCDF"/>
<circle cx="324" cy="204" r="3" transform="rotate(90 324 204)" fill="#C8CCDF"/>
<circle cx="324" cy="231" r="3" transform="rotate(90 324 231)" fill="#C8CCDF"/>
<circle cx="300" cy="45" r="3" transform="rotate(90 300 45)" fill="#C8CCDF"/>
<circle cx="300" cy="72" r="3" transform="rotate(90 300 72)" fill="#C8CCDF"/>
<circle cx="300" cy="98" r="3" transform="rotate(90 300 98)" fill="#C8CCDF"/>
<circle cx="300" cy="124" r="3" transform="rotate(90 300 124)" fill="#C8CCDF"/>
<circle cx="300" cy="152" r="3" transform="rotate(90 300 152)" fill="#C8CCDF"/>
<circle cx="300" cy="178" r="3" transform="rotate(90 300 178)" fill="#C8CCDF"/>
<circle cx="300" cy="204" r="3" transform="rotate(90 300 204)" fill="#C8CCDF"/>
<circle cx="300" cy="231" r="3" transform="rotate(90 300 231)" fill="#C8CCDF"/>
<path opacity="0.34" fill-rule="evenodd" clip-rule="evenodd" d="M-106.321 344.278C-87.2414 377.303 -82.743 416.876 -93.9523 453.875C-101.215 477.848 -101.2 514.487 -93.6756 538.538C-69.4944 615.807 31.3515 658.828 125.808 620.76C212.413 585.857 228.321 457.911 297.15 465.663C416.825 479.14 509.85 378.863 498.283 287.27C490.811 228.106 441.057 160.34 332.349 167.854C300.973 170.023 270.086 164.594 243.047 150.197C196.87 125.61 124.715 121.985 50.6971 145.128C-60.6373 179.939 -134.005 262.118 -113.176 328.679C-111.462 334.16 -106.321 344.278 -106.321 344.278Z" stroke="#C8CCDF" stroke-width="3"/>
<mask id="mask0" mask-type="alpha" maskUnits="userSpaceOnUse" x="-231" y="0" width="831" height="796">
<path fill-rule="evenodd" clip-rule="evenodd" d="M599.385 442.417L56.3635 795.059L-230.691 353.034L312.33 0.391439L599.385 442.417Z" fill="white"/>
</mask>
<g mask="url(#mask0)">
<path fill-rule="evenodd" clip-rule="evenodd" d="M-104.98 529.108C-69.9343 548.505 -44.4823 581.69 -34.5711 621.062C-28.1493 646.572 -8.32303 679.544 11.4615 697.119C75.0291 753.58 189.137 737.714 253.638 652.316C312.777 574.017 256.536 445.947 324.11 419.957C483.044 358.828 468.773 226.686 408.822 150.503C370.097 101.293 284.171 65.1251 194.77 132.839C168.449 152.776 136.92 163.609 104.777 165.287C49.8857 168.153 -17.0719 203.95 -71.233 264.85C-152.699 356.453 -174.348 470.14 -119.591 518.777" fill="url(#paint0_linear)"/>
</g>
<defs>
<linearGradient id="paint0_linear" x1="459.693" y1="267.354" x2="120.688" y2="86.5504" gradientUnits="userSpaceOnUse">
<stop stop-color="#10B382"/>
<stop offset="1" stop-color="#39E561"/>
</linearGradient>
</defs>
</svg>
